# MagicaVoxel @ Ephtracy

# group
o 

# material
mtllib lamp.mtl
usemtl palette

# normals
vn -1 0 0
vn 1 0 0
vn 0 0 1
vn 0 0 -1
vn 0 -1 0
vn 0 1 0

# texcoords
vt 0.427734 0.5
vt 0.478516 0.5
vt 0.927734 0.5
vt 0.935547 0.5
vt 0.970703 0.5
vt 0.982422 0.5
vt 0.986328 0.5

# verts
v -0.5 0 0.4
v -0.5 0 -0.6
v -0.5 1 0.4
v -0.5 1 -0.6
v -0.4 1 0.3
v -0.4 1 -0.5
v -0.4 4.2 0.3
v -0.4 4.2 -0.5
v -0.4 4.8 0.3
v -0.4 4.8 -0.5
v -0.4 14.4 1.3
v -0.4 14.4 0.3
v -0.4 14.5 1.3
v -0.4 14.5 0.3
v -0.4 14.5 0.1
v -0.4 14.6 1.4
v -0.4 14.6 1.3
v -0.4 14.7 1.4
v -0.4 14.7 1.3
v -0.4 14.7 0.5
v -0.4 14.7 0.1
v -0.4 14.8 1.3
v -0.4 14.8 0.5
v -0.3 4.8 0.2
v -0.3 4.8 -0.4
v -0.3 5.6 0.2
v -0.3 5.6 -0.4
v -0.3 7 0.2
v -0.3 7 -0.4
v -0.3 14.4 1.4
v -0.3 14.4 1.3
v -0.3 14.5 1.4
v -0.3 14.5 1.3
v -0.3 14.6 1.4
v -0.3 14.6 1.3
v -0.3 14.7 0.5
v -0.3 14.7 0.2
v -0.3 14.8 0.5
v -0.3 14.8 0.2
v -0.2 7 0.1
v -0.2 7 -0.3
v -0.2 14.4 0.1
v -0.2 14.4 -0.3
v -0.2 14.5 0.1
v -0.2 14.5 -0.2
v -0.2 14.5 -0.3
v -0.2 14.6 0
v -0.2 14.6 -0.2
v -0.2 14.7 0.1
v -0.2 14.7 0
v -0.1 13.9 0.2
v -0.1 13.9 0.1
v -0.1 14.4 0.1
v -0.1 14.5 0.2
v -0.1 14.5 0.1
v 0.1 14.6 0.1
v 0.1 14.6 0
v 0.1 14.7 0.1
v 0.1 14.7 0
v -0.1 14.6 0.1
v -0.1 14.6 0
v -0.1 14.7 0.1
v -0.1 14.7 0
v 0.1 13.9 0.2
v 0.1 13.9 0.1
v 0.1 14.4 0.1
v 0.1 14.5 0.2
v 0.1 14.5 0.1
v 0.2 7 0.1
v 0.2 7 -0.3
v 0.2 14.4 0.1
v 0.2 14.4 -0.3
v 0.2 14.5 0.1
v 0.2 14.5 -0.2
v 0.2 14.5 -0.3
v 0.2 14.6 0
v 0.2 14.6 -0.2
v 0.2 14.7 0.1
v 0.2 14.7 0
v 0.3 4.8 0.2
v 0.3 4.8 -0.4
v 0.3 7 0.2
v 0.3 7 -0.4
v 0.3 14.4 1.4
v 0.3 14.4 1.3
v 0.3 14.5 1.4
v 0.3 14.5 1.3
v 0.3 14.6 1.4
v 0.3 14.6 1.3
v 0.3 14.7 0.5
v 0.3 14.7 0.2
v 0.3 14.8 0.5
v 0.3 14.8 0.2
v 0.4 1 0.3
v 0.4 1 0.2
v 0.4 1 -0.1
v 0.4 1 -0.5
v 0.4 1.2 -0.1
v 0.4 1.2 -0.2
v 0.4 2 -0.2
v 0.4 2 -0.5
v 0.4 3.4 0.3
v 0.4 3.4 0.2
v 0.4 4.8 0.3
v 0.4 4.8 -0.5
v 0.4 14.4 1.3
v 0.4 14.4 0.3
v 0.4 14.5 1.3
v 0.4 14.5 0.3
v 0.4 14.5 0.1
v 0.4 14.6 1.4
v 0.4 14.6 1.3
v 0.4 14.7 1.4
v 0.4 14.7 1.3
v 0.4 14.7 1.2
v 0.4 14.7 1
v 0.4 14.7 0.5
v 0.4 14.7 0.1
v 0.4 14.8 1.3
v 0.4 14.8 1.2
v 0.4 14.8 1
v 0.4 14.8 0.5
v 0.5 0 0.4
v 0.5 0 -0.6
v 0.5 1 0.4
v 0.5 1 -0.6
v -0.4 14.6 1.4
v -0.4 14.7 1.4
v -0.3 14.4 1.4
v -0.3 14.5 1.4
v -0.3 14.6 1.4
v -0.3 14.7 1.4
v -0.2 14.4 1.4
v -0.2 14.5 1.4
v 0.2 14.4 1.4
v 0.2 14.5 1.4
v 0.3 14.4 1.4
v 0.3 14.5 1.4
v 0.3 14.6 1.4
v 0.3 14.7 1.4
v 0.4 14.6 1.4
v 0.4 14.7 1.4
v -0.4 14.4 1.3
v -0.4 14.5 1.3
v -0.4 14.6 1.3
v -0.4 14.7 1.3
v -0.4 14.8 1.3
v -0.3 14.4 1.3
v -0.3 14.5 1.3
v -0.3 14.6 1.3
v -0.3 14.7 1.3
v -0.3 14.8 1.3
v 0.3 14.4 1.3
v 0.3 14.5 1.3
v 0.3 14.6 1.3
v 0.3 14.7 1.3
v 0.3 14.8 1.3
v 0.4 14.4 1.3
v 0.4 14.5 1.3
v 0.4 14.6 1.3
v 0.4 14.7 1.3
v 0.4 14.8 1.3
v -0.5 0 0.4
v -0.5 1 0.4
v 0.5 0 0.4
v 0.5 1 0.4
v -0.4 1 0.3
v -0.4 4.2 0.3
v -0.4 4.8 0.3
v -0.2 3.2 0.3
v -0.2 4.2 0.3
v 0.1 3.2 0.3
v 0.1 4.8 0.3
v 0.3 3.4 0.3
v 0.3 4.8 0.3
v 0.4 1 0.3
v 0.4 3.4 0.3
v 0.4 4.8 0.3
v -0.3 4.8 0.2
v -0.3 5.6 0.2
v -0.3 7 0.2
v -0.1 13.9 0.2
v -0.1 14.5 0.2
v 0.1 4.8 0.2
v 0.1 5.6 0.2
v 0.1 13.9 0.2
v 0.1 14.5 0.2
v 0.3 4.8 0.2
v 0.3 7 0.2
v -0.2 7 0.1
v -0.2 14.4 0.1
v -0.2 14.5 0.1
v -0.1 7 0.1
v -0.1 13.9 0.1
v -0.1 14.4 0.1
v -0.1 14.5 0.1
v 0.1 7 0.1
v 0.1 13.9 0.1
v 0.1 14.4 0.1
v 0.1 14.5 0.1
v 0.2 7 0.1
v 0.2 14.4 0.1
v 0.2 14.5 0.1
v -0.4 14.7 0.5
v -0.4 14.8 0.5
v -0.3 14.7 0.5
v -0.3 14.8 0.5
v 0.3 14.7 0.5
v 0.3 14.8 0.5
v 0.4 14.7 0.5
v 0.4 14.8 0.5
v -0.4 14.4 0.3
v -0.4 14.5 0.3
v -0.2 14.4 0.3
v -0.2 14.5 0.3
v 0.2 14.4 0.3
v 0.2 14.5 0.3
v 0.4 14.4 0.3
v 0.4 14.5 0.3
v -0.3 14.7 0.2
v -0.3 14.8 0.2
v -0.1 14.7 0.2
v 0.2 14.7 0.2
v 0.3 14.7 0.2
v 0.3 14.8 0.2
v -0.4 14.5 0.1
v -0.4 14.7 0.1
v -0.2 14.5 0.1
v -0.2 14.7 0.1
v -0.1 14.6 0.1
v -0.1 14.7 0.1
v 0.1 14.6 0.1
v 0.1 14.7 0.1
v 0.2 14.5 0.1
v 0.2 14.7 0.1
v 0.4 14.5 0.1
v 0.4 14.7 0.1
v -0.2 14.6 0
v -0.2 14.7 0
v -0.1 14.6 0
v -0.1 14.7 0
v 0.1 14.6 0
v 0.1 14.7 0
v 0.2 14.6 0
v 0.2 14.7 0
v -0.2 14.5 -0.2
v -0.2 14.6 -0.2
v 0.2 14.5 -0.2
v 0.2 14.6 -0.2
v -0.2 7 -0.3
v -0.2 14.4 -0.3
v -0.2 14.5 -0.3
v 0.2 7 -0.3
v 0.2 14.4 -0.3
v 0.2 14.5 -0.3
v -0.3 4.8 -0.4
v -0.3 5.6 -0.4
v -0.3 7 -0.4
v -0.1 4.8 -0.4
v 0.1 4.8 -0.4
v 0.1 5.6 -0.4
v 0.3 4.8 -0.4
v 0.3 7 -0.4
v -0.4 1 -0.5
v -0.4 4.2 -0.5
v -0.4 4.8 -0.5
v -0.1 4.2 -0.5
v -0.1 4.8 -0.5
v 0.3 2 -0.5
v 0.3 4.8 -0.5
v 0.4 1 -0.5
v 0.4 2 -0.5
v 0.4 4.8 -0.5
v -0.5 0 -0.6
v -0.5 1 -0.6
v 0.5 0 -0.6
v 0.5 1 -0.6
v -0.5 0 0.4
v 0.5 0 0.4
v -0.5 0 -0.6
v 0.5 0 -0.6
v -0.1 13.9 0.2
v 0.1 13.9 0.2
v -0.1 13.9 0.1
v 0.1 13.9 0.1
v -0.3 14.4 1.4
v -0.2 14.4 1.4
v 0.2 14.4 1.4
v 0.3 14.4 1.4
v -0.4 14.4 1.3
v -0.3 14.4 1.3
v 0.3 14.4 1.3
v 0.4 14.4 1.3
v -0.4 14.4 0.3
v -0.2 14.4 0.3
v 0.2 14.4 0.3
v 0.4 14.4 0.3
v -0.4 14.5 0.3
v -0.2 14.5 0.3
v 0.2 14.5 0.3
v 0.4 14.5 0.3
v -0.1 14.5 0.2
v 0.1 14.5 0.2
v -0.4 14.5 0.1
v -0.2 14.5 0.1
v -0.1 14.5 0.1
v 0.1 14.5 0.1
v 0.2 14.5 0.1
v 0.4 14.5 0.1
v -0.4 14.6 1.4
v -0.3 14.6 1.4
v 0.3 14.6 1.4
v 0.4 14.6 1.4
v -0.4 14.6 1.3
v -0.3 14.6 1.3
v 0.3 14.6 1.3
v 0.4 14.6 1.3
v -0.5 1 0.4
v 0.5 1 0.4
v -0.4 1 0.3
v 0.4 1 0.3
v 0.4 1 0.2
v 0.4 1 -0.1
v -0.4 1 -0.5
v 0.4 1 -0.5
v -0.5 1 -0.6
v 0.5 1 -0.6
v -0.4 4.8 0.3
v 0.1 4.8 0.3
v 0.3 4.8 0.3
v 0.4 4.8 0.3
v -0.3 4.8 0.2
v 0.1 4.8 0.2
v 0.3 4.8 0.2
v -0.3 4.8 -0.4
v -0.1 4.8 -0.4
v 0.1 4.8 -0.4
v 0.3 4.8 -0.4
v -0.4 4.8 -0.5
v -0.1 4.8 -0.5
v 0.3 4.8 -0.5
v 0.4 4.8 -0.5
v -0.3 7 0.2
v 0.3 7 0.2
v -0.2 7 0.1
v -0.1 7 0.1
v 0.1 7 0.1
v 0.2 7 0.1
v -0.2 7 -0.3
v 0.2 7 -0.3
v -0.3 7 -0.4
v 0.3 7 -0.4
v -0.2 14.5 -0.2
v 0.2 14.5 -0.2
v -0.2 14.5 -0.3
v 0.2 14.5 -0.3
v -0.1 14.6 0.1
v 0.1 14.6 0.1
v -0.2 14.6 0
v -0.1 14.6 0
v 0.1 14.6 0
v 0.2 14.6 0
v -0.2 14.6 -0.2
v 0.2 14.6 -0.2
v -0.4 14.7 1.4
v -0.3 14.7 1.4
v 0.3 14.7 1.4
v 0.4 14.7 1.4
v -0.4 14.7 1.3
v -0.3 14.7 1.3
v 0.3 14.7 1.3
v 0.4 14.7 1.3
v -0.4 14.7 0.5
v -0.3 14.7 0.5
v 0.3 14.7 0.5
v 0.4 14.7 0.5
v -0.3 14.7 0.2
v -0.1 14.7 0.2
v 0.2 14.7 0.2
v 0.3 14.7 0.2
v -0.4 14.7 0.1
v -0.2 14.7 0.1
v -0.1 14.7 0.1
v 0.1 14.7 0.1
v 0.2 14.7 0.1
v 0.4 14.7 0.1
v -0.2 14.7 0
v -0.1 14.7 0
v 0.1 14.7 0
v 0.2 14.7 0
v -0.4 14.8 1.3
v -0.3 14.8 1.3
v 0.3 14.8 1.3
v 0.4 14.8 1.3
v 0.1 14.8 1.2
v 0.3 14.8 1.2
v 0.4 14.8 1.2
v 0.2 14.8 1
v 0.3 14.8 1
v 0.4 14.8 1
v 0.1 14.8 0.9
v 0.2 14.8 0.9
v -0.4 14.8 0.5
v -0.3 14.8 0.5
v 0.3 14.8 0.5
v 0.4 14.8 0.5
v -0.3 14.8 0.2
v 0.3 14.8 0.2

# faces
f 3/6/1 2/6/1 1/6/1
f 4/6/1 2/6/1 3/6/1
f 7/6/1 6/6/1 5/6/1
f 8/6/1 6/6/1 7/6/1
f 9/7/1 8/7/1 7/7/1
f 10/7/1 8/7/1 9/7/1
f 13/2/1 12/2/1 11/2/1
f 14/2/1 12/2/1 13/2/1
f 17/3/1 14/3/1 13/3/1
f 17/3/1 15/3/1 14/3/1
f 18/3/1 17/3/1 16/3/1
f 19/3/1 15/3/1 17/3/1
f 19/3/1 17/3/1 18/3/1
f 20/3/1 15/3/1 19/3/1
f 21/3/1 15/3/1 20/3/1
f 22/3/1 20/3/1 19/3/1
f 23/3/1 20/3/1 22/3/1
f 26/7/1 25/7/1 24/7/1
f 27/7/1 25/7/1 26/7/1
f 28/3/1 27/3/1 26/3/1
f 29/3/1 27/3/1 28/3/1
f 32/2/1 31/2/1 30/2/1
f 33/2/1 31/2/1 32/2/1
f 34/3/1 33/3/1 32/3/1
f 35/3/1 33/3/1 34/3/1
f 38/4/1 37/4/1 36/4/1
f 39/4/1 37/4/1 38/4/1
f 42/3/1 41/3/1 40/3/1
f 43/3/1 41/3/1 42/3/1
f 44/4/1 43/4/1 42/4/1
f 45/4/1 43/4/1 44/4/1
f 46/4/1 43/4/1 45/4/1
f 47/4/1 45/4/1 44/4/1
f 48/4/1 45/4/1 47/4/1
f 49/4/1 47/4/1 44/4/1
f 50/4/1 47/4/1 49/4/1
f 53/3/1 52/3/1 51/3/1
f 54/3/1 53/3/1 51/3/1
f 55/3/1 53/3/1 54/3/1
f 58/4/1 57/4/1 56/4/1
f 59/4/1 57/4/1 58/4/1
f 60/4/2 61/4/2 62/4/2
f 62/4/2 61/4/2 63/4/2
f 64/3/2 65/3/2 66/3/2
f 64/3/2 66/3/2 67/3/2
f 67/3/2 66/3/2 68/3/2
f 69/3/2 70/3/2 71/3/2
f 71/3/2 70/3/2 72/3/2
f 71/4/2 72/4/2 73/4/2
f 73/4/2 72/4/2 74/4/2
f 74/4/2 72/4/2 75/4/2
f 73/4/2 74/4/2 76/4/2
f 76/4/2 74/4/2 77/4/2
f 73/4/2 76/4/2 78/4/2
f 78/4/2 76/4/2 79/4/2
f 80/3/2 81/3/2 82/3/2
f 82/3/2 81/3/2 83/3/2
f 84/2/2 85/2/2 86/2/2
f 86/2/2 85/2/2 87/2/2
f 86/3/2 87/3/2 88/3/2
f 88/3/2 87/3/2 89/3/2
f 90/4/2 91/4/2 92/4/2
f 92/4/2 91/4/2 93/4/2
f 95/3/2 96/3/2 98/3/2
f 96/6/2 97/6/2 98/6/2
f 98/6/2 97/6/2 99/6/2
f 98/3/2 99/3/2 100/3/2
f 99/6/2 97/6/2 100/6/2
f 100/6/2 97/6/2 101/6/2
f 94/6/2 95/6/2 102/6/2
f 95/3/2 98/3/2 103/3/2
f 102/6/2 95/6/2 103/6/2
f 98/3/2 100/3/2 103/3/2
f 100/3/2 101/3/2 103/3/2
f 102/3/2 103/3/2 104/3/2
f 103/3/2 101/3/2 105/3/2
f 104/3/2 103/3/2 105/3/2
f 106/2/2 107/2/2 108/2/2
f 108/2/2 107/2/2 109/2/2
f 108/3/2 109/3/2 112/3/2
f 109/3/2 110/3/2 112/3/2
f 111/3/2 112/3/2 113/3/2
f 112/3/2 110/3/2 114/3/2
f 113/3/2 112/3/2 114/3/2
f 114/3/2 110/3/2 115/3/2
f 115/3/2 110/3/2 116/3/2
f 116/3/2 110/3/2 117/3/2
f 117/3/2 110/3/2 118/3/2
f 114/3/2 115/3/2 119/3/2
f 115/5/2 116/5/2 120/5/2
f 119/3/2 115/3/2 120/3/2
f 116/3/2 117/3/2 121/3/2
f 120/5/2 116/5/2 121/5/2
f 121/3/2 117/3/2 122/3/2
f 123/6/2 124/6/2 125/6/2
f 125/6/2 124/6/2 126/6/2
f 131/3/3 128/3/3 127/3/3
f 132/3/3 128/3/3 131/3/3
f 133/2/3 130/2/3 129/2/3
f 134/3/3 131/3/3 130/3/3
f 134/2/3 130/2/3 133/2/3
f 135/1/3 134/1/3 133/1/3
f 136/3/3 131/3/3 134/3/3
f 136/1/3 134/1/3 135/1/3
f 137/2/3 136/2/3 135/2/3
f 138/3/3 131/3/3 136/3/3
f 138/2/3 136/2/3 137/2/3
f 139/4/3 132/4/3 131/4/3
f 139/3/3 131/3/3 138/3/3
f 140/4/3 132/4/3 139/4/3
f 141/3/3 140/3/3 139/3/3
f 142/3/3 140/3/3 141/3/3
f 148/2/3 144/2/3 143/2/3
f 149/3/3 145/3/3 144/3/3
f 149/2/3 144/2/3 148/2/3
f 150/3/3 145/3/3 149/3/3
f 151/3/3 147/3/3 146/3/3
f 152/3/3 147/3/3 151/3/3
f 156/4/3 152/4/3 151/4/3
f 157/4/3 152/4/3 156/4/3
f 158/2/3 154/2/3 153/2/3
f 159/3/3 155/3/3 154/3/3
f 159/2/3 154/2/3 158/2/3
f 160/3/3 155/3/3 159/3/3
f 161/3/3 157/3/3 156/3/3
f 162/3/3 157/3/3 161/3/3
f 165/6/3 164/6/3 163/6/3
f 166/6/3 164/6/3 165/6/3
f 170/6/3 168/6/3 167/6/3
f 171/7/3 169/7/3 168/7/3
f 171/6/3 168/6/3 170/6/3
f 172/6/3 170/6/3 167/6/3
f 172/7/3 171/7/3 170/7/3
f 173/7/3 169/7/3 171/7/3
f 173/7/3 171/7/3 172/7/3
f 174/6/3 173/6/3 172/6/3
f 175/6/3 173/6/3 174/6/3
f 176/6/3 172/6/3 167/6/3
f 176/6/3 174/6/3 172/6/3
f 177/3/3 175/3/3 174/3/3
f 177/6/3 174/6/3 176/6/3
f 178/3/3 175/3/3 177/3/3
f 184/7/3 180/7/3 179/7/3
f 185/3/3 181/3/3 180/3/3
f 185/7/3 180/7/3 184/7/3
f 186/3/3 183/3/3 182/3/3
f 187/3/3 183/3/3 186/3/3
f 188/3/3 185/3/3 184/3/3
f 189/3/3 181/3/3 185/3/3
f 189/3/3 185/3/3 188/3/3
f 193/3/3 191/3/3 190/3/3
f 194/3/3 191/3/3 193/3/3
f 195/4/3 192/4/3 191/4/3
f 195/3/3 191/3/3 194/3/3
f 196/4/3 192/4/3 195/4/3
f 197/4/3 194/4/3 193/4/3
f 198/4/3 194/4/3 197/4/3
f 201/3/3 198/3/3 197/3/3
f 201/3/3 199/3/3 198/3/3
f 202/4/3 200/4/3 199/4/3
f 202/3/3 199/3/3 201/3/3
f 203/4/3 200/4/3 202/4/3
f 204/3/4 205/3/4 206/3/4
f 206/3/4 205/3/4 207/3/4
f 208/3/4 209/3/4 210/3/4
f 210/3/4 209/3/4 211/3/4
f 212/2/4 213/2/4 214/2/4
f 214/2/4 213/2/4 215/2/4
f 214/1/4 215/1/4 216/1/4
f 216/1/4 215/1/4 217/1/4
f 216/2/4 217/2/4 218/2/4
f 218/2/4 217/2/4 219/2/4
f 220/4/4 221/4/4 222/4/4
f 222/4/4 221/4/4 223/4/4
f 223/4/4 221/4/4 224/4/4
f 224/4/4 221/4/4 225/4/4
f 226/3/4 227/3/4 228/3/4
f 228/3/4 227/3/4 229/3/4
f 230/4/4 231/4/4 232/4/4
f 232/4/4 231/4/4 233/4/4
f 234/3/4 235/3/4 236/3/4
f 236/3/4 235/3/4 237/3/4
f 238/4/4 239/4/4 240/4/4
f 240/4/4 239/4/4 241/4/4
f 242/4/4 243/4/4 244/4/4
f 244/4/4 243/4/4 245/4/4
f 246/4/4 247/4/4 248/4/4
f 248/4/4 247/4/4 249/4/4
f 250/3/4 251/3/4 253/3/4
f 251/4/4 252/4/4 254/4/4
f 253/3/4 251/3/4 254/3/4
f 254/4/4 252/4/4 255/4/4
f 256/7/4 257/7/4 259/7/4
f 259/7/4 257/7/4 260/7/4
f 257/3/4 258/3/4 261/3/4
f 260/7/4 257/7/4 261/7/4
f 260/3/4 261/3/4 262/3/4
f 261/3/4 258/3/4 263/3/4
f 262/3/4 261/3/4 263/3/4
f 264/6/4 265/6/4 267/6/4
f 265/7/4 266/7/4 267/7/4
f 267/7/4 266/7/4 268/7/4
f 264/6/4 267/6/4 269/6/4
f 267/6/4 268/6/4 269/6/4
f 269/6/4 268/6/4 270/6/4
f 264/6/4 269/6/4 271/6/4
f 269/3/4 270/3/4 272/3/4
f 271/6/4 269/6/4 272/6/4
f 272/3/4 270/3/4 273/3/4
f 274/6/4 275/6/4 276/6/4
f 276/6/4 275/6/4 277/6/4
f 280/6/5 279/6/5 278/6/5
f 281/6/5 279/6/5 280/6/5
f 284/3/5 283/3/5 282/3/5
f 285/3/5 283/3/5 284/3/5
f 291/2/5 287/2/5 286/2/5
f 292/2/5 289/2/5 288/2/5
f 294/2/5 291/2/5 290/2/5
f 295/1/5 288/1/5 287/1/5
f 295/2/5 291/2/5 294/2/5
f 295/2/5 287/2/5 291/2/5
f 296/2/5 293/2/5 292/2/5
f 296/1/5 288/1/5 295/1/5
f 296/2/5 292/2/5 288/2/5
f 297/2/5 293/2/5 296/2/5
f 302/3/5 299/3/5 298/3/5
f 302/3/5 301/3/5 300/3/5
f 302/3/5 300/3/5 299/3/5
f 303/3/5 301/3/5 302/3/5
f 304/3/5 302/3/5 298/3/5
f 305/3/5 302/3/5 304/3/5
f 306/3/5 302/3/5 305/3/5
f 307/3/5 301/3/5 303/3/5
f 308/3/5 301/3/5 307/3/5
f 309/3/5 301/3/5 308/3/5
f 314/3/5 311/3/5 310/3/5
f 315/3/5 311/3/5 314/3/5
f 316/3/5 313/3/5 312/3/5
f 317/3/5 313/3/5 316/3/5
f 318/6/6 319/6/6 320/6/6
f 320/6/6 319/6/6 321/6/6
f 321/6/6 319/6/6 322/6/6
f 322/6/6 319/6/6 323/6/6
f 318/6/6 320/6/6 324/6/6
f 323/6/6 319/6/6 325/6/6
f 318/6/6 324/6/6 326/6/6
f 324/6/6 325/6/6 326/6/6
f 325/6/6 319/6/6 327/6/6
f 326/6/6 325/6/6 327/6/6
f 328/7/6 329/7/6 332/7/6
f 329/6/6 330/6/6 333/6/6
f 332/7/6 329/7/6 333/7/6
f 330/3/6 331/3/6 334/3/6
f 333/6/6 330/6/6 334/6/6
f 328/7/6 332/7/6 335/7/6
f 334/3/6 331/3/6 338/3/6
f 328/7/6 335/7/6 339/7/6
f 335/7/6 336/7/6 339/7/6
f 336/6/6 337/6/6 340/6/6
f 339/7/6 336/7/6 340/7/6
f 337/6/6 338/6/6 340/6/6
f 338/3/6 331/3/6 341/3/6
f 340/6/6 338/6/6 341/6/6
f 341/3/6 331/3/6 342/3/6
f 343/3/6 344/3/6 345/3/6
f 345/3/6 344/3/6 346/3/6
f 346/3/6 344/3/6 347/3/6
f 347/3/6 344/3/6 348/3/6
f 343/3/6 345/3/6 349/3/6
f 348/3/6 344/3/6 350/3/6
f 343/3/6 349/3/6 351/3/6
f 349/3/6 350/3/6 351/3/6
f 350/3/6 344/3/6 352/3/6
f 351/3/6 350/3/6 352/3/6
f 353/4/6 354/4/6 355/4/6
f 355/4/6 354/4/6 356/4/6
f 357/4/6 358/4/6 360/4/6
f 360/4/6 358/4/6 361/4/6
f 359/4/6 360/4/6 363/4/6
f 361/4/6 362/4/6 363/4/6
f 360/4/6 361/4/6 363/4/6
f 363/4/6 362/4/6 364/4/6
f 365/3/6 366/3/6 369/3/6
f 366/4/6 367/4/6 370/4/6
f 369/3/6 366/3/6 370/3/6
f 367/3/6 368/3/6 371/3/6
f 370/4/6 367/4/6 371/4/6
f 371/3/6 368/3/6 372/3/6
f 373/3/6 374/3/6 377/3/6
f 375/3/6 376/3/6 380/3/6
f 373/3/6 377/3/6 381/3/6
f 377/3/6 378/3/6 381/3/6
f 381/3/6 378/3/6 382/3/6
f 378/4/6 379/4/6 383/4/6
f 382/3/6 378/3/6 383/3/6
f 383/4/6 379/4/6 384/4/6
f 379/3/6 380/3/6 385/3/6
f 384/4/6 379/4/6 385/4/6
f 380/3/6 376/3/6 386/3/6
f 385/3/6 380/3/6 386/3/6
f 382/4/6 383/4/6 387/4/6
f 387/4/6 383/4/6 388/4/6
f 384/4/6 385/4/6 389/4/6
f 389/4/6 385/4/6 390/4/6
f 392/4/6 393/4/6 395/4/6
f 393/3/6 394/3/6 396/3/6
f 395/4/6 393/4/6 396/4/6
f 396/3/6 394/3/6 397/3/6
f 395/5/6 396/5/6 398/5/6
f 396/5/6 397/5/6 398/5/6
f 398/5/6 397/5/6 399/5/6
f 399/5/6 397/5/6 400/5/6
f 392/4/6 395/4/6 401/4/6
f 395/5/6 398/5/6 401/5/6
f 398/4/6 399/4/6 402/4/6
f 401/5/6 398/5/6 402/5/6
f 391/3/6 392/3/6 403/3/6
f 392/4/6 401/4/6 404/4/6
f 403/3/6 392/3/6 404/3/6
f 401/4/6 402/4/6 404/4/6
f 402/4/6 399/4/6 405/4/6
f 404/4/6 402/4/6 405/4/6
f 399/3/6 400/3/6 405/3/6
f 405/3/6 400/3/6 406/3/6
f 404/4/6 405/4/6 407/4/6
f 407/4/6 405/4/6 408/4/6
