# MagicaVoxel @ Ephtracy

# group
o 

# material
mtllib magazine2.mtl
usemtl palette

# normals
vn -1 0 0
vn 1 0 0
vn 0 0 1
vn 0 0 -1
vn 0 -1 0
vn 0 1 0

# texcoords
vt 0.919922 0.5
vt 0.927734 0.5

# verts
v -1 0 1
v -1 0 -1
v -1 0.1 1
v -1 0.1 0.6
v -1 0.1 -0.9
v -1 0.1 -1
v -1 0.2 0.6
v -1 0.2 -0.9
v -0.4 0.1 0.5
v -0.4 0.1 0.3
v -0.4 0.1 0.2
v -0.4 0.2 0.5
v -0.4 0.2 0.3
v -0.4 0.2 0.2
v -0.3 0 1
v -0.3 0 0.9
v -0.3 0.1 1
v -0.3 0.1 0.9
v 0 0.1 0.6
v 0 0.1 0.5
v 0 0.1 0.3
v 0 0.1 0.2
v 0 0.2 0.6
v 0 0.2 0.5
v 0 0.2 0.3
v 0 0.2 0.2
v 0.2 0.1 1
v 0.2 0.1 0.6
v 0.2 0.2 1
v 0.2 0.2 0.6
v -0.5 0 1
v -0.5 0 0.9
v -0.5 0.1 1
v -0.5 0.1 0.9
v -0.5 0.1 0.6
v -0.5 0.1 0.2
v -0.5 0.2 0.6
v -0.5 0.2 0.2
v -0.3 0.1 0.5
v -0.3 0.1 0.4
v -0.3 0.2 0.5
v -0.3 0.2 0.4
v -0.2 0.1 0.4
v -0.2 0.1 0.3
v -0.2 0.1 0.2
v -0.2 0.2 0.4
v -0.2 0.2 0.3
v -0.2 0.2 0.2
v 0.4 0.1 1
v 0.4 0.1 0.8
v 0.4 0.2 1
v 0.4 0.2 0.8
v 0.5 0 1
v 0.5 0 0.9
v 0.5 0.1 1
v 0.5 0.1 0.9
v 0.7 0.1 0.8
v 0.7 0.1 0.4
v 0.7 0.2 0.8
v 0.7 0.2 0.4
v 0.9 0.1 0.4
v 0.9 0.1 -0.9
v 0.9 0.2 0.4
v 0.9 0.2 -0.9
v 1 0 0.9
v 1 0 -1
v 1 0.1 0.9
v 1 0.1 -1
v -1 0 1
v -1 0.1 1
v -0.5 0 1
v -0.5 0.1 1
v -0.3 0 1
v -0.3 0.1 1
v 0.2 0.1 1
v 0.2 0.2 1
v 0.4 0.1 1
v 0.4 0.2 1
v 0.5 0 1
v 0.5 0.1 1
v -0.5 0 0.9
v -0.5 0.1 0.9
v -0.3 0 0.9
v -0.3 0.1 0.9
v 0.5 0 0.9
v 0.5 0.1 0.9
v 1 0 0.9
v 1 0.1 0.9
v 0.4 0.1 0.8
v 0.4 0.2 0.8
v 0.7 0.1 0.8
v 0.7 0.2 0.8
v -1 0.1 0.6
v -1 0.2 0.6
v -0.5 0.1 0.6
v -0.5 0.2 0.6
v 0 0.1 0.6
v 0 0.2 0.6
v 0.1 0.1 0.6
v 0.1 0.2 0.6
v 0.2 0.1 0.6
v 0.2 0.2 0.6
v -0.4 0.1 0.5
v -0.4 0.2 0.5
v -0.3 0.1 0.5
v -0.3 0.2 0.5
v -0.3 0.1 0.4
v -0.3 0.2 0.4
v -0.2 0.1 0.4
v -0.2 0.2 0.4
v 0.7 0.1 0.4
v 0.7 0.2 0.4
v 0.9 0.1 0.4
v 0.9 0.2 0.4
v -0.5 0.1 0.2
v -0.5 0.2 0.2
v -0.4 0.1 0.2
v -0.4 0.2 0.2
v -0.2 0.1 0.2
v -0.2 0.2 0.2
v 0 0.1 0.2
v 0 0.2 0.2
v -1 0.1 -0.9
v -1 0.2 -0.9
v -0.6 0.1 -0.9
v -0.6 0.2 -0.9
v -0.5 0.1 -0.9
v -0.5 0.2 -0.9
v -0.2 0.1 -0.9
v -0.2 0.2 -0.9
v 0 0.1 -0.9
v 0 0.2 -0.9
v 0.1 0.1 -0.9
v 0.1 0.2 -0.9
v 0.2 0.1 -0.9
v 0.2 0.2 -0.9
v 0.9 0.1 -0.9
v 0.9 0.2 -0.9
v -1 0 -1
v -1 0.1 -1
v -0.5 0 -1
v -0.5 0.1 -1
v -0.2 0 -1
v -0.2 0.1 -1
v 1 0 -1
v 1 0.1 -1
v -1 0 1
v -0.5 0 1
v -0.3 0 1
v 0.5 0 1
v -0.5 0 0.9
v -0.3 0 0.9
v 0.5 0 0.9
v 1 0 0.9
v -0.4 0 0.8
v 0.1 0 0.8
v -0.3 0 0.7
v -0.2 0 0.7
v -0.1 0 0.7
v 0 0 0.7
v 0 0 0.6
v 0.1 0 0.6
v -0.4 0 0.5
v -0.3 0 0.5
v -0.2 0 0.5
v -0.1 0 0.5
v -0.2 0 0.3
v 0 0 0.3
v -0.2 0 0.2
v 0 0 0.2
v -0.5 0 -0.9
v -0.2 0 -0.9
v -1 0 -1
v -0.5 0 -1
v -0.2 0 -1
v 1 0 -1
v -1 0.1 1
v -0.5 0.1 1
v -0.3 0.1 1
v 0.2 0.1 1
v 0.4 0.1 1
v 0.5 0.1 1
v -0.5 0.1 0.9
v -0.3 0.1 0.9
v 0.5 0.1 0.9
v 1 0.1 0.9
v -0.4 0.1 0.8
v 0.1 0.1 0.8
v 0.4 0.1 0.8
v 0.7 0.1 0.8
v -0.3 0.1 0.7
v -0.2 0.1 0.7
v -0.1 0.1 0.7
v 0 0.1 0.7
v -1 0.1 0.6
v -0.5 0.1 0.6
v 0 0.1 0.6
v 0.1 0.1 0.6
v 0.2 0.1 0.6
v -0.4 0.1 0.5
v -0.3 0.1 0.5
v -0.2 0.1 0.5
v -0.1 0.1 0.5
v 0 0.1 0.5
v -0.3 0.1 0.4
v -0.2 0.1 0.4
v 0.7 0.1 0.4
v 0.9 0.1 0.4
v -0.4 0.1 0.3
v -0.2 0.1 0.3
v 0 0.1 0.3
v -0.5 0.1 0.2
v -0.4 0.1 0.2
v -0.2 0.1 0.2
v 0 0.1 0.2
v -1 0.1 -0.9
v -0.6 0.1 -0.9
v -0.5 0.1 -0.9
v -0.2 0.1 -0.9
v 0 0.1 -0.9
v 0.1 0.1 -0.9
v 0.2 0.1 -0.9
v 0.9 0.1 -0.9
v -1 0.1 -1
v -0.5 0.1 -1
v -0.2 0.1 -1
v 1 0.1 -1
v 0.2 0.2 1
v 0.4 0.2 1
v 0.4 0.2 0.8
v 0.7 0.2 0.8
v -1 0.2 0.6
v -0.5 0.2 0.6
v 0 0.2 0.6
v 0.1 0.2 0.6
v 0.2 0.2 0.6
v -0.4 0.2 0.5
v -0.3 0.2 0.5
v 0 0.2 0.5
v 0.1 0.2 0.5
v -0.3 0.2 0.4
v -0.2 0.2 0.4
v 0.7 0.2 0.4
v 0.9 0.2 0.4
v -0.4 0.2 0.3
v -0.2 0.2 0.3
v 0 0.2 0.3
v 0.1 0.2 0.3
v -0.5 0.2 0.2
v -0.4 0.2 0.2
v -0.3 0.2 0.2
v -0.2 0.2 0.2
v 0 0.2 0.2
v 0.1 0.2 0.2
v -0.3 0.2 0.1
v -0.2 0.2 0.1
v 0 0.2 0.1
v -0.4 0.2 0
v -0.2 0.2 0
v 0 0.2 0
v 0.1 0.2 0
v -0.4 0.2 -0.1
v 0.1 0.2 -0.1
v -0.4 0.2 -0.3
v 0.1 0.2 -0.3
v -0.3 0.2 -0.4
v 0 0.2 -0.4
v -0.4 0.2 -0.5
v -0.3 0.2 -0.5
v 0 0.2 -0.5
v 0.1 0.2 -0.5
v -0.5 0.2 -0.6
v -0.4 0.2 -0.6
v -0.3 0.2 -0.6
v 0 0.2 -0.6
v -0.6 0.2 -0.7
v -0.5 0.2 -0.7
v -0.4 0.2 -0.7
v -0.2 0.2 -0.8
v 0 0.2 -0.8
v 0.1 0.2 -0.8
v 0.2 0.2 -0.8
v -1 0.2 -0.9
v -0.6 0.2 -0.9
v -0.5 0.2 -0.9
v -0.2 0.2 -0.9
v 0 0.2 -0.9
v 0.1 0.2 -0.9
v 0.2 0.2 -0.9
v 0.9 0.2 -0.9

# faces
f 3/1/1 2/1/1 1/1/1
f 4/1/1 2/1/1 3/1/1
f 5/1/1 2/1/1 4/1/1
f 6/1/1 2/1/1 5/1/1
f 7/1/1 5/1/1 4/1/1
f 8/1/1 5/1/1 7/1/1
f 12/1/1 10/1/1 9/1/1
f 13/2/1 11/2/1 10/2/1
f 13/1/1 10/1/1 12/1/1
f 14/2/1 11/2/1 13/2/1
f 17/1/1 16/1/1 15/1/1
f 18/1/1 16/1/1 17/1/1
f 23/2/1 20/2/1 19/2/1
f 24/1/1 21/1/1 20/1/1
f 24/2/1 20/2/1 23/2/1
f 25/2/1 22/2/1 21/2/1
f 25/1/1 21/1/1 24/1/1
f 26/2/1 22/2/1 25/2/1
f 29/1/1 28/1/1 27/1/1
f 30/1/1 28/1/1 29/1/1
f 31/1/2 32/1/2 33/1/2
f 33/1/2 32/1/2 34/1/2
f 35/1/2 36/1/2 37/1/2
f 37/1/2 36/1/2 38/1/2
f 39/1/2 40/1/2 41/1/2
f 41/1/2 40/1/2 42/1/2
f 43/1/2 44/1/2 46/1/2
f 44/2/2 45/2/2 47/2/2
f 46/1/2 44/1/2 47/1/2
f 47/2/2 45/2/2 48/2/2
f 49/1/2 50/1/2 51/1/2
f 51/1/2 50/1/2 52/1/2
f 53/1/2 54/1/2 55/1/2
f 55/1/2 54/1/2 56/1/2
f 57/1/2 58/1/2 59/1/2
f 59/1/2 58/1/2 60/1/2
f 61/1/2 62/1/2 63/1/2
f 63/1/2 62/1/2 64/1/2
f 65/1/2 66/1/2 67/1/2
f 67/1/2 66/1/2 68/1/2
f 71/1/3 70/1/3 69/1/3
f 72/1/3 70/1/3 71/1/3
f 75/1/3 74/1/3 73/1/3
f 77/1/3 75/1/3 73/1/3
f 77/1/3 76/1/3 75/1/3
f 78/1/3 76/1/3 77/1/3
f 79/1/3 77/1/3 73/1/3
f 80/1/3 77/1/3 79/1/3
f 83/1/3 82/1/3 81/1/3
f 84/1/3 82/1/3 83/1/3
f 87/1/3 86/1/3 85/1/3
f 88/1/3 86/1/3 87/1/3
f 91/1/3 90/1/3 89/1/3
f 92/1/3 90/1/3 91/1/3
f 95/1/3 94/1/3 93/1/3
f 96/1/3 94/1/3 95/1/3
f 99/2/3 98/2/3 97/2/3
f 100/2/3 98/2/3 99/2/3
f 101/1/3 100/1/3 99/1/3
f 102/1/3 100/1/3 101/1/3
f 105/1/3 104/1/3 103/1/3
f 106/1/3 104/1/3 105/1/3
f 109/1/3 108/1/3 107/1/3
f 110/1/3 108/1/3 109/1/3
f 113/1/3 112/1/3 111/1/3
f 114/1/3 112/1/3 113/1/3
f 117/1/3 116/1/3 115/1/3
f 118/1/3 116/1/3 117/1/3
f 121/1/3 120/1/3 119/1/3
f 122/1/3 120/1/3 121/1/3
f 123/1/4 124/1/4 125/1/4
f 125/1/4 124/1/4 126/1/4
f 125/2/4 126/2/4 127/2/4
f 127/2/4 126/2/4 128/2/4
f 127/1/4 128/1/4 129/1/4
f 129/1/4 128/1/4 130/1/4
f 129/2/4 130/2/4 131/2/4
f 131/2/4 130/2/4 132/2/4
f 131/1/4 132/1/4 133/1/4
f 133/1/4 132/1/4 134/1/4
f 133/2/4 134/2/4 135/2/4
f 135/2/4 134/2/4 136/2/4
f 135/1/4 136/1/4 137/1/4
f 137/1/4 136/1/4 138/1/4
f 139/1/4 140/1/4 141/1/4
f 141/1/4 140/1/4 142/1/4
f 141/2/4 142/2/4 143/2/4
f 143/2/4 142/2/4 144/2/4
f 143/1/4 144/1/4 145/1/4
f 145/1/4 144/1/4 146/1/4
f 151/1/5 148/1/5 147/1/5
f 152/1/5 150/1/5 149/1/5
f 153/1/5 150/1/5 152/1/5
f 155/1/5 152/1/5 151/1/5
f 155/1/5 154/1/5 153/1/5
f 155/1/5 153/1/5 152/1/5
f 156/1/5 154/1/5 155/1/5
f 157/2/5 156/2/5 155/2/5
f 158/2/5 156/2/5 157/2/5
f 159/2/5 156/2/5 158/2/5
f 160/2/5 156/2/5 159/2/5
f 161/1/5 160/1/5 159/1/5
f 161/2/5 156/2/5 160/2/5
f 162/1/5 154/1/5 156/1/5
f 162/2/5 156/2/5 161/2/5
f 163/1/5 155/1/5 151/1/5
f 163/2/5 157/2/5 155/2/5
f 164/1/5 158/1/5 157/1/5
f 164/2/5 157/2/5 163/2/5
f 165/2/5 159/2/5 158/2/5
f 165/1/5 158/1/5 164/1/5
f 166/1/5 161/1/5 159/1/5
f 166/2/5 159/2/5 165/2/5
f 166/1/5 162/1/5 161/1/5
f 167/1/5 165/1/5 164/1/5
f 167/1/5 164/1/5 163/1/5
f 167/1/5 166/1/5 165/1/5
f 168/1/5 162/1/5 166/1/5
f 168/1/5 166/1/5 167/1/5
f 169/1/5 167/1/5 163/1/5
f 169/2/5 168/2/5 167/2/5
f 170/1/5 162/1/5 168/1/5
f 170/2/5 168/2/5 169/2/5
f 171/1/5 151/1/5 147/1/5
f 171/1/5 169/1/5 163/1/5
f 171/1/5 170/1/5 169/1/5
f 171/1/5 163/1/5 151/1/5
f 172/1/5 170/1/5 171/1/5
f 173/1/5 171/1/5 147/1/5
f 174/2/5 172/2/5 171/2/5
f 174/1/5 171/1/5 173/1/5
f 175/1/5 170/1/5 172/1/5
f 175/2/5 172/2/5 174/2/5
f 176/1/5 162/1/5 170/1/5
f 176/1/5 170/1/5 175/1/5
f 176/1/5 154/1/5 162/1/5
f 177/1/6 178/1/6 183/1/6
f 179/1/6 180/1/6 184/1/6
f 181/1/6 182/1/6 185/1/6
f 183/1/6 184/1/6 187/1/6
f 184/1/6 180/1/6 188/1/6
f 187/1/6 184/1/6 188/1/6
f 185/1/6 186/1/6 189/1/6
f 181/1/6 185/1/6 189/1/6
f 189/1/6 186/1/6 190/1/6
f 187/2/6 188/2/6 191/2/6
f 191/2/6 188/2/6 192/2/6
f 192/2/6 188/2/6 193/2/6
f 193/2/6 188/2/6 194/2/6
f 177/1/6 183/1/6 195/1/6
f 183/1/6 187/1/6 195/1/6
f 195/1/6 187/1/6 196/1/6
f 194/2/6 188/2/6 197/2/6
f 193/1/6 194/1/6 197/1/6
f 188/1/6 180/1/6 198/1/6
f 197/2/6 188/2/6 198/2/6
f 198/1/6 180/1/6 199/1/6
f 196/1/6 187/1/6 200/1/6
f 187/2/6 191/2/6 200/2/6
f 191/1/6 192/1/6 201/1/6
f 200/2/6 191/2/6 201/2/6
f 192/2/6 193/2/6 202/2/6
f 201/1/6 192/1/6 202/1/6
f 193/1/6 197/1/6 203/1/6
f 202/2/6 193/2/6 203/2/6
f 203/1/6 197/1/6 204/1/6
f 201/1/6 202/1/6 205/1/6
f 203/1/6 204/1/6 205/1/6
f 202/1/6 203/1/6 205/1/6
f 205/1/6 204/1/6 206/1/6
f 190/1/6 186/1/6 207/1/6
f 207/1/6 186/1/6 208/1/6
f 196/1/6 200/1/6 209/1/6
f 206/1/6 204/1/6 210/1/6
f 210/1/6 204/1/6 211/1/6
f 196/1/6 209/1/6 212/1/6
f 212/1/6 209/1/6 213/1/6
f 210/2/6 211/2/6 214/2/6
f 214/2/6 211/2/6 215/2/6
f 208/1/6 186/1/6 223/1/6
f 216/1/6 217/1/6 224/1/6
f 217/1/6 218/1/6 224/1/6
f 218/2/6 219/2/6 225/2/6
f 224/1/6 218/1/6 225/1/6
f 219/1/6 220/1/6 226/1/6
f 225/2/6 219/2/6 226/2/6
f 221/1/6 222/1/6 226/1/6
f 222/1/6 223/1/6 226/1/6
f 220/1/6 221/1/6 226/1/6
f 223/1/6 186/1/6 227/1/6
f 226/1/6 223/1/6 227/1/6
f 228/1/6 229/1/6 230/1/6
f 228/1/6 230/1/6 236/1/6
f 230/1/6 231/1/6 236/1/6
f 234/2/6 235/2/6 239/2/6
f 235/1/6 236/1/6 240/1/6
f 239/2/6 235/2/6 240/2/6
f 237/1/6 238/1/6 241/1/6
f 240/1/6 236/1/6 243/1/6
f 236/1/6 231/1/6 243/1/6
f 239/1/6 240/1/6 243/1/6
f 241/1/6 242/1/6 245/1/6
f 237/1/6 241/1/6 245/1/6
f 245/1/6 242/1/6 246/1/6
f 243/1/6 244/1/6 247/1/6
f 239/1/6 243/1/6 247/1/6
f 247/1/6 244/1/6 248/1/6
f 232/1/6 233/1/6 249/1/6
f 245/2/6 246/2/6 250/2/6
f 250/2/6 246/2/6 251/2/6
f 251/2/6 246/2/6 252/2/6
f 247/2/6 248/2/6 253/2/6
f 248/1/6 244/1/6 254/1/6
f 253/2/6 248/2/6 254/2/6
f 251/2/6 252/2/6 255/2/6
f 249/1/6 250/1/6 255/1/6
f 250/1/6 251/1/6 255/1/6
f 252/1/6 253/1/6 256/1/6
f 255/2/6 252/2/6 256/2/6
f 253/1/6 254/1/6 256/1/6
f 256/1/6 254/1/6 257/1/6
f 249/1/6 255/1/6 258/1/6
f 255/1/6 256/1/6 258/1/6
f 256/2/6 257/2/6 259/2/6
f 258/1/6 256/1/6 259/1/6
f 257/1/6 254/1/6 260/1/6
f 259/2/6 257/2/6 260/2/6
f 254/1/6 244/1/6 261/1/6
f 260/1/6 254/1/6 261/1/6
f 258/2/6 259/2/6 262/2/6
f 259/2/6 260/2/6 262/2/6
f 260/2/6 261/2/6 262/2/6
f 249/1/6 258/1/6 262/1/6
f 261/1/6 244/1/6 263/1/6
f 262/2/6 261/2/6 263/2/6
f 249/1/6 262/1/6 264/1/6
f 262/1/6 263/1/6 264/1/6
f 263/1/6 244/1/6 265/1/6
f 264/1/6 263/1/6 265/1/6
f 264/2/6 265/2/6 266/2/6
f 266/2/6 265/2/6 267/2/6
f 249/1/6 264/1/6 268/1/6
f 264/2/6 266/2/6 268/2/6
f 266/1/6 267/1/6 269/1/6
f 268/2/6 266/2/6 269/2/6
f 267/2/6 265/2/6 270/2/6
f 269/1/6 267/1/6 270/1/6
f 265/1/6 244/1/6 271/1/6
f 270/2/6 265/2/6 271/2/6
f 232/1/6 249/1/6 272/1/6
f 268/1/6 269/1/6 272/1/6
f 249/1/6 268/1/6 272/1/6
f 272/1/6 269/1/6 273/1/6
f 269/2/6 270/2/6 274/2/6
f 273/1/6 269/1/6 274/1/6
f 270/1/6 271/1/6 275/1/6
f 274/2/6 270/2/6 275/2/6
f 232/1/6 272/1/6 276/1/6
f 272/2/6 273/2/6 277/2/6
f 276/1/6 272/1/6 277/1/6
f 273/1/6 274/1/6 278/1/6
f 277/2/6 273/2/6 278/2/6
f 274/1/6 275/1/6 278/1/6
f 277/1/6 278/1/6 279/1/6
f 278/1/6 275/1/6 279/1/6
f 275/1/6 271/1/6 280/1/6
f 279/1/6 275/1/6 280/1/6
f 271/1/6 244/1/6 281/1/6
f 280/1/6 271/1/6 281/1/6
f 281/1/6 244/1/6 282/1/6
f 232/1/6 276/1/6 283/1/6
f 276/2/6 277/2/6 284/2/6
f 283/1/6 276/1/6 284/1/6
f 277/1/6 279/1/6 285/1/6
f 284/2/6 277/2/6 285/2/6
f 279/2/6 280/2/6 286/2/6
f 285/1/6 279/1/6 286/1/6
f 280/1/6 281/1/6 287/1/6
f 286/2/6 280/2/6 287/2/6
f 281/2/6 282/2/6 288/2/6
f 287/1/6 281/1/6 288/1/6
f 282/1/6 244/1/6 289/1/6
f 288/2/6 282/2/6 289/2/6
f 289/1/6 244/1/6 290/1/6
